# xmcd CD database file
#
# Track frame offsets:
#	150
#	12227
#	40437
#
# Disc length: 711 seconds
#
# Revision: 0
# Processed by: cddbd v1.5.1PL0 Copyright (c) Steve Scherf et al.
# Submitted via: CDex 1.51
#
DISCID=1d02c503
DTITLE=LOLITA - TryMe
DYEAR=1994
DGENRE=Eurodance
TTITLE0=TryMe(RADIO MIX
TTITLE1=TryMeEXTENDED MIX
TTITLE2=TryMe(PLAY BACK
EXTD=YEAR: 1994
EXTT0=
EXTT1=
EXTT2=
PLAYORDER=
